<svg width="12" height="14" viewBox="0 0 12 14" fill="none" xmlns="http://www.w3.org/2000/svg">
<path d="M12 2.00536C12.0019 1.50413 11.8151 1.02059 11.4768 0.650555C11.1384 0.280408 10.6731 0.0509677 10.1732 0.00749989C9.67344 -0.035868 9.17544 0.109956 8.77824 0.416092C8.38104 0.722336 8.11349 1.1664 8.02881 1.66042C7.94398 2.15443 8.04823 2.66226 8.32078 3.08301C8.59332 3.50388 9.01421 3.80701 9.50001 3.93233V6.50056C9.50001 6.63301 9.44733 6.7601 9.35358 6.85375C9.25983 6.9474 9.1326 7.00003 9.00001 7.00003H3C2.86741 7.00003 2.74017 6.9474 2.64642 6.85375C2.55267 6.7601 2.49999 6.63301 2.49999 6.50056V3.93233C3.13394 3.76878 3.64754 3.30577 3.87523 2.69257C4.10279 2.0794 4.01563 1.39373 3.64174 0.856935C3.26786 0.320109 2.65468 5.06619e-05 2 5.06619e-05C1.34531 5.06619e-05 0.732137 0.320137 0.35825 0.856935C-0.015636 1.39376 -0.102808 2.0794 0.124767 2.69257C0.352447 3.30575 0.866054 3.76877 1.5 3.93233V6.50056C1.5 6.89802 1.65803 7.27907 1.93929 7.56014C2.22065 7.84109 2.60211 7.99896 3 7.99896H5.50001V10.0677C4.86606 10.2313 4.35246 10.6943 4.12477 11.3075C3.89721 11.9207 3.98437 12.6063 4.35826 13.1431C4.73214 13.6799 5.34532 14 6 14C6.65469 14 7.26786 13.6799 7.64175 13.1431C8.01564 12.6063 8.10281 11.9207 7.87523 11.3075C7.64755 10.6943 7.13395 10.2313 6.5 10.0677V7.99896H9.00001C9.39789 7.99896 9.77935 7.84109 10.0607 7.56014C10.342 7.27908 10.5 6.89802 10.5 6.50056V3.93233C10.9281 3.82196 11.3075 3.57289 11.5789 3.22426C11.8502 2.87563 11.9983 2.44698 12 2.00536ZM0.999963 2.00536C0.999963 1.74047 1.10532 1.48638 1.29282 1.29898C1.48043 1.11168 1.73479 1.00643 1.99997 1.00643C2.26514 1.00643 2.51951 1.11168 2.70711 1.29898C2.89461 1.48639 2.99997 1.74048 2.99997 2.00536C2.99997 2.27025 2.89461 2.52435 2.70711 2.71175C2.5195 2.89905 2.26514 3.0043 1.99997 3.0043C1.73479 3.0043 1.48042 2.89905 1.29282 2.71175C1.10532 2.52434 0.999963 2.27025 0.999963 2.00536ZM6.99997 11.9947C6.99997 12.2596 6.89462 12.5137 6.70712 12.7011C6.51951 12.8884 6.26514 12.9936 5.99997 12.9936C5.7348 12.9936 5.48043 12.8884 5.29283 12.7011C5.10533 12.5137 4.99997 12.2596 4.99997 11.9947C4.99997 11.7298 5.10533 11.4757 5.29283 11.2883C5.48044 11.101 5.7348 10.9958 5.99997 10.9958C6.26514 10.9958 6.51952 11.101 6.70712 11.2883C6.89462 11.4757 6.99997 11.7298 6.99997 11.9947ZM9.99998 3.0043C9.7348 3.0043 9.48044 2.89905 9.29284 2.71175C9.10534 2.52434 8.99998 2.27025 8.99998 2.00536C8.99998 1.74048 9.10534 1.48638 9.29284 1.29898C9.48045 1.11168 9.73481 1.00643 9.99998 1.00643C10.2652 1.00643 10.5195 1.11168 10.7071 1.29898C10.8946 1.48639 11 1.74048 11 2.00536C11 2.27025 10.8946 2.52435 10.7071 2.71175C10.5195 2.89905 10.2652 3.0043 9.99998 3.0043Z" fill="#646769"/>
</svg>
